<?xml version="1.0" encoding="utf-8"?>
<!-- Generator: Adobe Illustrator 19.0.0, SVG Export Plug-In . SVG Version: 6.00 Build 0)  -->
<svg version="1.1" id="Layer_1" xmlns="http://www.w3.org/2000/svg" xmlns:xlink="http://www.w3.org/1999/xlink" x="0px" y="0px"
	 viewBox="0 0 50 50" enable-background="new 0 0 50 50" xml:space="preserve">
<path id="XMLID_6_" fill="#4D4D4E" d="M43.3,15c-3.7,0-6.7,3-6.7,6.7c0,0,0,0.1,0,0.1L32.3,28c-0.7,0-1.4,0.1-2.1,0.4
	c-0.3,0.1-0.6,0.3-0.8,0.4l-19.5-8c-0.3-1.5-1.4-2.8-2.9-3.5c-2.5-1-5.4,0.1-6.4,2.6c-1,2.5,0.1,5.4,2.6,6.4c1.2,0.5,2.5,0.5,3.7,0
	c0.3-0.1,0.5-0.3,0.8-0.4L27.3,34c0.3,1.5,1.4,2.8,2.9,3.5c2.5,1,5.4-0.1,6.4-2.6c0.3-0.6,0.4-1.3,0.4-2l6.2-4.4c0.1,0,0.1,0,0.2,0
	c3.7,0,6.7-3,6.7-6.7C50,18,47,15,43.3,15z M6.3,19.3c-1.4-0.6-3,0.1-3.6,1.5c-0.6,1.4,0.1,3,1.5,3.6l2.2,0.9
	c-0.4,0.2-0.9,0.2-1.3,0.2c-0.5,0-1-0.1-1.4-0.3c-1.4-0.6-2.3-2-2.3-3.5c0-0.5,0.1-1,0.3-1.4c0.8-1.9,3-2.8,4.9-2
	c0.9,0.4,1.6,1.1,2,1.9L6.3,19.3z M35.5,34.4c-0.8,1.9-3,2.8-4.9,2c-0.9-0.4-1.6-1-1.9-1.9l2.2,0.9c0.3,0.1,0.7,0.2,1.1,0.2
	c1.1,0,2.1-0.6,2.6-1.7c0.6-1.4-0.1-3-1.5-3.6l-2.3-0.9c0.9-0.3,1.9-0.3,2.8,0c0.9,0.4,1.7,1.1,2,2C35.9,32.4,35.9,33.4,35.5,34.4z
	 M43.3,26.2c-2.5,0-4.5-2-4.5-4.5c0-2.5,2-4.5,4.5-4.5c2.5,0,4.5,2,4.5,4.5C47.7,24.1,45.7,26.2,43.3,26.2z"/>
</svg>
