<?xml version="1.0" encoding="utf-8"?>
<!-- Generator: Adobe Illustrator 19.0.0, SVG Export Plug-In . SVG Version: 6.00 Build 0)  -->
<svg version="1.1" id="Layer_1" xmlns="http://www.w3.org/2000/svg" xmlns:xlink="http://www.w3.org/1999/xlink" x="0px" y="0px"
	 viewBox="0 0 200 50" enable-background="new 0 0 200 50" xml:space="preserve">
<path id="XMLID_12_" fill="#4D4D4E" d="M194.4,7.7h-1V11h-0.8V7.7h-1V7h2.9L194.4,7.7L194.4,7.7z"/>
<path id="XMLID_11_" fill="#4D4D4E" d="M198.5,11h-0.8V8.7l-0.8,1.5h-0.5l-0.8-1.5V11h-0.8V7h0.8l1,2.2l1-2.2h0.8V11z"/>
<path id="XMLID_10_" fill="#4D4D4E" d="M123.1,17.9c0,1.5-0.5,2.6-1.6,3.4c-1.1,0.8-2.4,1.2-4.1,1.2c-2.4,0-4.3-0.7-5.6-2l1.9-1.9
	c0.9,0.9,2.1,1.3,3.7,1.3c1.8,0,2.7-0.6,2.7-1.9c0-0.6-0.2-1-0.5-1.3c-0.3-0.3-0.8-0.5-1.4-0.6l-1.9-0.3c-2.7-0.4-4.1-1.8-4.1-4.3
	c0-1.4,0.5-2.5,1.4-3.4c1-0.9,2.3-1.3,3.9-1.3c2.1,0,3.7,0.6,5,1.8l-1.9,1.9c-0.7-0.7-1.8-1.1-3.2-1.1c-0.8,0-1.4,0.2-1.8,0.6
	s-0.6,0.8-0.6,1.4c0,0.4,0.2,0.8,0.5,1.1c0.3,0.3,0.8,0.5,1.4,0.6l1.8,0.3c1.3,0.2,2.3,0.6,2.9,1.2
	C122.7,15.4,123.1,16.5,123.1,17.9z"/>
<path id="XMLID_9_" fill="#4D4D4E" d="M138.2,9.7h-4v12.7h-3V9.7h-4V7h11.1L138.2,9.7L138.2,9.7z"/>
<path id="XMLID_8_" fill="#4D4D4E" d="M153.1,22.4h-10.1V7h10.1v2.7h-7.1v3.6h6.1V16h-6.1v3.7h7.1V22.4z"/>
<path id="XMLID_20_" fill="#4D4D4E" d="M171.2,22.4h-3.1l-0.9-2.7h-5.5l-0.9,2.7h-3.1L163.2,7h2.4L171.2,22.4z M166.3,17.2l-1.9-5.6
	l-1.9,5.6C162.5,17.2,166.3,17.2,166.3,17.2z"/>
<path id="XMLID_5_" fill="#4D4D4E" d="M189.4,22.4h-3v-9l-2.9,5.8h-2l-3-5.8v9h-3V7h3l4,8.3l4-8.3h3L189.4,22.4
	C189.4,22.4,189.4,22.4,189.4,22.4z"/>
<path id="XMLID_14_" fill="#4D4D4E" d="M91.6,1c-7.7,0-14,6.3-14,14c0,0.1,0,0.1,0,0.2l-9,13.1c-1.5-0.1-2.9,0.2-4.3,0.8
	c-0.6,0.3-1.2,0.6-1.7,0.9L21.7,13.2c-0.7-3.2-2.9-6-6.1-7.3C10.4,3.7,4.4,6.2,2.3,11.4c-2.2,5.2,0.3,11.2,5.5,13.4
	c2.5,1,5.3,1.1,7.8,0c0.6-0.2,1.1-0.5,1.7-0.9l40.8,16.9c0.7,3.1,2.9,5.9,6.1,7.2c5.2,2.2,11.2-0.3,13.4-5.5
	c0.6-1.4,0.8-2.8,0.8-4.2l12.9-9.2c0.1,0,0.2,0,0.3,0c7.7,0,14-6.3,14-14C105.6,7.3,99.3,1,91.6,1z M14.2,10c-3-1.2-6.4,0.2-7.6,3.1
	c-1.2,3,0.2,6.4,3.1,7.6l4.7,1.9c-0.9,0.3-1.8,0.5-2.7,0.5c-1,0-2-0.2-3-0.6c-3-1.3-4.9-4.2-4.9-7.3c0-1,0.2-2,0.6-3
	c1.7-4,6.3-5.9,10.3-4.3c1.9,0.8,3.3,2.2,4.1,4L14.2,10z M75.4,41.6c-1.7,4-6.3,5.9-10.3,4.3c-1.9-0.8-3.3-2.2-4.1-3.9l4.6,1.9
	c0.7,0.3,1.5,0.4,2.2,0.4c2.3,0,4.4-1.3,5.4-3.6c1.2-3-0.2-6.4-3.1-7.6l-4.7-2c1.8-0.7,3.9-0.7,5.8,0.1c1.9,0.8,3.5,2.3,4.3,4.3
	C76.2,37.5,76.2,39.7,75.4,41.6z M91.6,24.4c-5.2,0-9.3-4.2-9.3-9.3c0-5.2,4.2-9.4,9.3-9.4c5.2,0,9.4,4.2,9.4,9.4
	C100.9,20.2,96.7,24.4,91.6,24.4z"/>
</svg>
