<?xml version="1.0" encoding="utf-8"?>
<!-- Generator: Adobe Illustrator 19.0.0, SVG Export Plug-In . SVG Version: 6.00 Build 0)  -->
<svg version="1.1" id="Layer_1" xmlns="http://www.w3.org/2000/svg" xmlns:xlink="http://www.w3.org/1999/xlink" x="0px" y="0px"
	 viewBox="0 0 213 71.8" enable-background="new 0 0 213 71.8" xml:space="preserve">
<g id="XMLID_8_">
	<g id="XMLID_74_">
		<path id="XMLID_75_" fill-rule="evenodd" clip-rule="evenodd" fill="#A4A3B7" d="M27.7,34.8l0.2,2.9l2.3,0.4l0.4,0l5.3,6.5
			c-0.3,1.9-0.4,5.4-0.5,8.2c-11.5,2-20.6,8.4-23.2,16.5C18,62.1,29,56.9,41.8,56.2c11.7-0.6,22.2,2.6,29,8.2
			C69.2,62,67,60,64.3,58.2l-1.6-4.4c0,0-2.1-5.5-4.5-7.6c-2.3-7.2-5.1-7.6-5.1-7.6l-0.4-3.1l-1.8-1.1c-0.3-3.4,0.9-4.5,0.9-4.5
			s1.4,0.8,3.1,4.5c0,0-1.1,3.2,2.7,4.3c0.2,0.1,5.8-3-3.6-14.3l2.2-0.7c0,0,0-4.5-6.3-4.3c0.4-3.8-1.5-4.9-3-4.9
			c-0.8,0-3.7,0-3.7,4.2c-4.1-1-7.3,0.9-7.3,0.9c1.8-9.2-3.6-7.2-3.6-7.2s0-4.7-9.8-4.3C17.4,3.4,4.5,3.5,4.5,3.5l0.5,0.6
			C4.4,3.5,3.8,2.8,3.3,2.2C2,1.6,1.6,2.9,1.6,2.9L27.7,34.8C27.7,34.8,27.7,34.8,27.7,34.8z M47.1,42.6l1.6,2.7l5.1,4.7l0.6,3.7
			c-2.9-0.8-6-1.3-9.3-1.5c-0.8-0.9-1.6-1.9-2.4-2.9l-0.1-0.5L47.1,42.6z M21.7,24C17,18.5,12.4,12.9,8.1,7.9l1.5,0.4
			c5.1,4.4,12.1,14.5,12.1,14.5l0.2,0.5L21.7,24z M39.8,37.1c0,0-1.6,3.3-2.8,5.4c-1.3-1.6-2.6-3.2-4-4.8v-1.5l6.9-1.8L39.8,37.1z
			 M23,25.6c0.1-0.1,5.2-3.9,6.5-6.5c0.5-1.7,1.6-1.8,1.6-1.8s-0.9,1.3,0.7,2c2,0.1,2.9,1.8,2.9,1.8h1.1L36,23c1.7,0.8,2,2,2,2
			l-0.9,0.7c0,0-0.2,2.7-2.5,4.3c-2.1,1-2.9,2.7-2.9,2.7l-1.6,0.2c0,0-0.4,0.3-0.7,0.5C27.3,30.8,25.2,28.2,23,25.6z"/>
	</g>
</g>
<path id="XMLID_27_" fill-rule="evenodd" clip-rule="evenodd" fill="#A4A3B7" d="M85.7,42c0,0,0.2,0,0.4,0c0.2,0,0.5,0,0.8,0
	c0,0,0,0,0.1,0c0,0,0.1,0,0.1,0c0.3,0,0.6,0,0.8,0c0.3,0,0.4,0,0.5,0v0.5c-0.1,0-0.2-0.1-0.4-0.1c-0.2,0-0.4,0-0.5,0
	c-0.1,0-0.2,0-0.3,0c-0.1,0-0.2,0-0.3,0c-0.1,0-0.1,0-0.2,0c-0.1,0-0.1,0-0.1,0c0,0-0.1,0-0.1,0c0,0,0,0.1,0,0.2c0,0.1,0,0.3,0,0.6
	c0,0.2,0,0.6,0,1c0,0,0,0,0.1,0c0.1,0,0.1,0,0.3,0c0.1,0,0.2,0,0.3,0c0.1,0,0.2,0,0.3,0c0.2,0,0.4,0,0.5,0c0.1,0,0.3,0,0.3,0
	c0,0.1,0,0.2,0,0.2c0,0.1,0,0.1,0,0.2c-0.1,0-0.2,0-0.4,0c-0.1,0-0.3,0-0.5,0c0,0-0.1,0-0.1,0c0,0-0.1,0-0.1,0c-0.2,0-0.4,0-0.5,0
	c-0.1,0-0.2,0-0.2,0c0,0.5,0,0.9,0,1.2c0,0.3,0,0.5,0,0.6c0,0.1,0,0.2,0,0.2v0c0,0,0.1,0,0.1,0c0,0,0.1,0,0.1,0c0.1,0,0.1,0,0.2,0
	c0.1,0,0.2,0,0.3,0c0.1,0,0.2,0,0.3,0c0.2,0,0.4,0,0.5,0c0.1,0,0.3,0,0.4-0.1v0.5c-0.1,0-0.2,0-0.4,0s-0.5,0-0.8,0c0,0,0,0,0,0h0
	c-0.3,0-0.6,0-0.9,0c-0.3,0-0.4,0-0.5,0c0-0.1,0-0.1,0-0.3c0-0.1,0-0.4,0-0.8c0-0.3,0-0.8,0-1.5c0-0.6,0-1.1,0-1.5
	c0-0.3,0-0.6,0-0.7C85.7,42.2,85.7,42.1,85.7,42L85.7,42z"/>
<path id="XMLID_25_" fill-rule="evenodd" clip-rule="evenodd" fill="#A4A3B7" d="M93.1,47.1c0-1.1,0.1-2,0.1-2.7c0-0.7,0-1.3,0-1.7
	c0-0.1,0-0.3,0-0.4c0-0.1,0-0.2,0-0.3c0,0,0-0.1,0-0.1c0,0,0,0,0.1,0c0,0,0,0,0,0c0,0,0,0,0,0c0,0,0,0,0.1,0c0,0,0,0,0,0
	c0.1,0.2,0.3,0.4,0.6,0.8c0.3,0.3,0.6,0.7,1,1c0,0,0,0.1,0.1,0.1c0,0,0.1,0.1,0.1,0.1c0.4,0.5,0.9,0.9,1.3,1.3
	c0.4,0.4,0.6,0.6,0.6,0.6c0-0.2,0-0.4,0-0.8c0-0.3,0-0.7,0-1c0-0.1,0-0.1,0-0.2c0-0.1,0-0.1,0-0.2c0-0.4,0-1-0.1-1.6
	c0.1,0,0.1,0,0.1,0c0.1,0,0.1,0,0.1,0c0,0,0.1,0,0.1,0c0,0,0.1,0,0.1,0l0,0c0,0,0,0,0,0l0,0c0,0.7,0,1.3,0,1.9c0,0.6,0,1.1,0,1.6
	c0,0.2,0,0.5,0,0.7c0,0.2,0,0.4,0,0.6c0,0.1,0,0.3,0,0.3c0,0.1,0,0.1,0,0.2l0,0c0,0,0,0,0,0c0,0,0,0,0,0.1l0,0l0,0c0,0-0.1,0-0.1,0
	c0,0-0.1-0.1-0.1-0.1c-0.2-0.2-0.4-0.5-0.7-0.8c-0.3-0.3-0.6-0.7-0.9-1c0,0,0,0-0.1-0.1c0,0,0,0-0.1-0.1c-0.5-0.5-0.9-1-1.3-1.4
	s-0.6-0.6-0.6-0.6c0,0.2,0,0.5,0,0.8c0,0.3,0,0.6,0,0.9c0,0.1,0,0.2,0,0.4c0,0.1,0,0.2,0,0.4c0,0.4,0,0.7,0,1c0,0.3,0,0.4,0,0.5
	c0,0,0,0,0,0c-0.1,0-0.1,0-0.1,0c-0.1,0-0.1,0-0.1,0c0,0-0.1,0-0.1,0C93.2,47.1,93.2,47.1,93.1,47.1C93.2,47.1,93.1,47.1,93.1,47.1z
	"/>
<path id="XMLID_24_" fill-rule="evenodd" clip-rule="evenodd" fill="#A4A3B7" d="M102.1,42c0,0,0.2,0,0.6,0.1c0.4,0,0.7,0,1.2,0
	c0,0,0,0,0.1,0c0,0,0,0,0.1,0c0.4,0,0.9,0,1.3,0c0.4,0,0.6,0,0.6-0.1v0.4c-0.1,0-0.2,0-0.3,0c-0.1,0-0.3,0-0.4,0c-0.1,0-0.2,0-0.3,0
	c-0.1,0-0.2,0-0.2,0c-0.1,0-0.2,0-0.3,0c-0.1,0-0.1,0-0.1,0c0,0.1,0,0.2,0,0.3c0,0.1,0,0.4,0,0.7c0,0.3,0,0.7,0,1.2
	c0,0.6,0,1.1,0,1.5c0,0.4,0,0.6,0,0.8c0,0.1,0,0.3,0,0.3c0,0-0.1,0-0.1,0c-0.1,0-0.1,0-0.1,0c-0.1,0-0.1,0-0.2,0c-0.1,0-0.1,0-0.1,0
	c0-0.1,0-0.2,0-0.4c0-0.1,0-0.4,0-0.7c0-0.4,0-0.8,0-1.5c0-0.5,0-1,0-1.3s0-0.5,0-0.7c0-0.1,0-0.2,0-0.3c0,0,0,0-0.1,0
	c-0.1,0-0.1,0-0.2,0c0,0-0.1,0-0.1,0c0,0-0.1,0-0.1,0c-0.1,0-0.1,0-0.2,0c-0.1,0-0.1,0-0.2,0c-0.2,0-0.3,0-0.4,0.1
	c-0.1,0-0.2,0.1-0.3,0.1V42z"/>
<path id="XMLID_23_" fill-rule="evenodd" clip-rule="evenodd" fill="#A4A3B7" d="M110.6,42c0,0,0.2,0,0.4,0c0.2,0,0.5,0,0.8,0
	c0,0,0,0,0.1,0c0,0,0.1,0,0.1,0c0.3,0,0.6,0,0.8,0c0.3,0,0.4,0,0.5,0v0.5c-0.1,0-0.2-0.1-0.4-0.1c-0.1,0-0.3,0-0.5,0
	c-0.1,0-0.2,0-0.3,0c-0.1,0-0.2,0-0.3,0c-0.1,0-0.1,0-0.2,0c-0.1,0-0.1,0-0.1,0c0,0-0.1,0-0.1,0c0,0,0,0.1,0,0.2c0,0.1,0,0.3,0,0.6
	c0,0.2,0,0.6,0,1c0,0,0,0,0.1,0c0.1,0,0.1,0,0.3,0c0.1,0,0.1,0,0.3,0c0.1,0,0.2,0,0.3,0c0.2,0,0.4,0,0.5,0c0.1,0,0.3,0,0.3,0
	c0,0.1,0,0.2,0,0.2c0,0.1,0,0.1,0,0.2c-0.1,0-0.2,0-0.4,0c-0.2,0-0.3,0-0.5,0c0,0-0.1,0-0.1,0c0,0-0.1,0-0.1,0c-0.2,0-0.4,0-0.5,0
	c-0.2,0-0.2,0-0.2,0c0,0.5,0,0.9,0,1.2c0,0.3,0,0.5,0,0.6c0,0.1,0,0.2,0,0.2v0c0,0,0.1,0,0.1,0c0,0,0.1,0,0.1,0c0.1,0,0.1,0,0.2,0
	c0.1,0,0.2,0,0.3,0c0.1,0,0.2,0,0.3,0c0.2,0,0.4,0,0.5,0c0.2,0,0.3,0,0.4-0.1v0.5c-0.1,0-0.2,0-0.4,0c-0.2,0-0.5,0-0.8,0
	c0,0,0,0,0,0c0,0,0,0,0,0c-0.3,0-0.6,0-0.9,0c-0.3,0-0.4,0-0.5,0c0-0.1,0-0.1,0-0.3c0-0.1,0-0.4,0-0.8c0-0.3,0-0.8,0-1.5
	c0-0.6,0-1.1,0-1.5c0-0.3,0-0.6,0-0.7C110.6,42.2,110.6,42.1,110.6,42L110.6,42z"/>
<path id="XMLID_40_" fill-rule="evenodd" clip-rule="evenodd" fill="#A4A3B7" d="M120,42c0.4,0,0.7,0.1,0.9,0.4
	c0.2,0.2,0.3,0.5,0.3,0.8c0,0,0,0,0,0v0c0,0.3-0.1,0.6-0.4,0.8c-0.2,0.3-0.6,0.4-1,0.4c0,0,0.1,0.2,0.4,0.7c0.3,0.4,0.8,1,1.6,1.9
	c-0.1,0-0.1,0-0.1,0c-0.1,0-0.1,0-0.1,0c-0.1,0-0.1,0-0.2,0c-0.1,0-0.1,0-0.2,0c-0.1,0-0.1,0-0.2,0c-0.4-0.7-0.9-1.3-1.2-1.7
	c0,0,0,0,0,0v-1c0,0,0,0,0,0c0.2-0.1,0.4-0.1,0.6-0.3c0.2-0.1,0.3-0.4,0.3-0.7c0-0.3-0.1-0.6-0.3-0.7c-0.2-0.1-0.4-0.2-0.6-0.3
	c0,0,0,0,0,0V42C119.8,42,119.9,42,120,42L120,42z M119.6,45.4c-0.1-0.1-0.1-0.2-0.2-0.3c-0.1-0.1-0.2-0.2-0.3-0.4c0,0,0,0-0.1,0
	c0,0,0,0,0-0.1h0c0,0,0,0-0.1,0h0c0,0-0.1,0-0.1,0c0,0-0.1,0-0.1,0l0,0c0,0,0,0,0,0l0,0c0,0.6,0,1.1,0,1.4c0,0.3,0,0.6,0,0.7
	c0,0.2,0,0.3,0,0.3c0,0,0,0.1,0,0.1l0,0c0,0,0,0,0,0c0,0,0,0-0.1,0c0,0-0.1,0-0.1,0c0,0-0.1,0-0.1,0c0,0-0.1,0-0.1,0
	c-0.1,0-0.1,0-0.1,0h0c0,0-0.1,0-0.1,0c0-0.1,0-0.1,0-0.3c0-0.2,0-0.4,0-0.8c0-0.4,0-0.8,0-1.5c0-0.6,0-1.1,0-1.4c0-0.4,0-0.6,0-0.8
	c0-0.2,0-0.3,0-0.4c0.1,0,0.2,0,0.4,0c0.2,0,0.4,0,0.6,0c0.2,0,0.4,0,0.6,0c0,0,0,0,0,0v0.2c-0.1,0-0.1,0-0.2,0c-0.1,0-0.1,0-0.2,0
	c-0.1,0-0.1,0-0.2,0c-0.1,0-0.1,0-0.1,0c0,0-0.1,0-0.1,0v0c0,0,0,0,0,0.1c0,0,0,0.1,0,0.2c0,0.1,0,0.3,0,0.6c0,0.3,0,0.7,0,1.2
	c0,0,0.1,0,0.1,0c0,0,0.1,0,0.1,0c0.1,0,0.1,0,0.1,0c0.1,0,0.2,0,0.3,0c0.1,0,0.2,0,0.3,0V45.4z"/>
<path id="XMLID_17_" fill-rule="evenodd" clip-rule="evenodd" fill="#A4A3B7" d="M126.4,42c0,0,0.2,0,0.5,0.1c0.4,0,0.8,0,1.2,0
	c0,0,0,0,0.1,0c0,0,0,0,0.1,0c0.4,0,0.9,0,1.3,0c0.4,0,0.6,0,0.6-0.1v0.4c-0.1,0-0.2,0-0.3,0c-0.1,0-0.2,0-0.4,0c-0.1,0-0.2,0-0.3,0
	c-0.1,0-0.2,0-0.3,0c-0.1,0-0.2,0-0.3,0c-0.1,0-0.1,0-0.1,0c0,0.1,0,0.2,0,0.3c0,0.1,0,0.4,0,0.7c0,0.3,0,0.7,0,1.2
	c0,0.6,0,1.1,0,1.5c0,0.4,0,0.6,0,0.8c0,0.1,0,0.3,0,0.3c-0.1,0-0.1,0-0.2,0c-0.1,0-0.1,0-0.1,0c-0.1,0-0.1,0-0.2,0
	c-0.1,0-0.1,0-0.1,0c0-0.1,0-0.2,0-0.4c0-0.1,0-0.4,0-0.7c0-0.4,0-0.8,0-1.5c0-0.5,0-1,0-1.3s0-0.5,0-0.7c0-0.1,0-0.2,0-0.3
	c0,0,0,0-0.1,0c0,0-0.1,0-0.2,0c0,0-0.1,0-0.1,0c0,0-0.1,0-0.1,0c-0.1,0-0.1,0-0.2,0c-0.1,0-0.1,0-0.2,0c-0.1,0-0.3,0-0.4,0.1
	c-0.1,0-0.2,0.1-0.3,0.1V42z"/>
<path id="XMLID_36_" fill-rule="evenodd" clip-rule="evenodd" fill="#A4A3B7" d="M137.1,42.2c0-0.1,0.1-0.1,0.1-0.2c0,0,0,0,0,0
	s0,0,0,0l0,0c0,0,0,0,0,0c0,0,0,0,0.1,0c0,0,0,0,0,0c0.7,2,1.5,3.7,2.2,5.1c-0.1,0-0.1,0-0.2,0c0,0,0,0-0.1,0c0,0-0.1,0-0.1,0
	c0,0-0.1,0-0.1,0c0,0,0,0-0.1,0c0,0,0,0-0.1,0c0,0,0,0-0.1,0c0,0,0,0-0.1,0c0,0,0,0-0.1,0s-0.1,0-0.1,0c0-0.1-0.1-0.2-0.1-0.3
	c0-0.1-0.1-0.2-0.1-0.4c0-0.1,0-0.1-0.1-0.2c0-0.1-0.1-0.1-0.1-0.2c-0.1-0.2-0.2-0.5-0.2-0.7c-0.1-0.2-0.1-0.3-0.1-0.3
	c-0.1,0-0.3,0-0.5,0c-0.2,0-0.3,0-0.4,0v-0.4c0.2,0,0.3,0,0.4,0c0.1,0,0.2,0,0.3,0c0,0,0.1,0,0.1,0c-0.3-0.7-0.5-1.2-0.6-1.4
	c-0.1-0.2-0.1-0.3-0.1-0.4c0,0,0-0.1,0-0.1l0,0V42.2z M134.9,47.1c0.1-0.1,0.1-0.3,0.2-0.4c0.1-0.1,0.1-0.3,0.2-0.4
	c0.5-1,1.1-2.4,1.7-4V43c0,0,0,0,0,0v0l0,0c0,0,0,0,0,0.1l0,0l0,0c0,0.1,0,0.1-0.1,0.3c-0.1,0.2-0.3,0.6-0.5,1.4l0,0l0,0
	c0,0,0,0,0.1,0c0,0,0.1,0,0.2,0c0.1,0,0.2,0,0.4,0c0,0,0.1,0,0.1,0v0.4l0,0c-0.2,0-0.3,0-0.4,0c-0.1,0-0.3,0-0.4,0
	c0,0-0.1,0.2-0.3,0.6c-0.1,0.4-0.3,0.8-0.5,1.3c0,0-0.1,0-0.1,0c0,0,0,0-0.1,0c0,0,0,0,0,0c0,0,0,0-0.1,0h0h0c0,0,0,0-0.1,0h0H134.9
	C135,47.1,134.9,47.1,134.9,47.1z"/>
<path id="XMLID_14_" fill-rule="evenodd" clip-rule="evenodd" fill="#A4A3B7" d="M144.3,42c0.1,0,0.1,0,0.1,0c0.1,0,0.1,0,0.1,0h0
	l0,0c0,0,0,0,0,0c0.1,0,0.1,0,0.1,0c0,0,0.1,0,0.1,0c0,0.1,0,0.2,0,0.4c0,0.2,0,0.4,0,0.8c0,0.3,0,0.8,0,1.4c0,0.6,0,1.1,0,1.5
	c0,0.4,0,0.6,0,0.8c0,0.1,0,0.3,0,0.3c0,0-0.1,0-0.1,0c-0.1,0-0.1,0-0.1,0c-0.1,0-0.1,0-0.2,0c-0.1,0-0.1,0-0.1,0c0-0.1,0-0.1,0-0.3
	c0-0.1,0-0.4,0-0.7c0-0.4,0-0.8,0-1.5c0-0.6,0-1,0-1.4c0-0.3,0-0.6,0-0.7C144.3,42.2,144.3,42.1,144.3,42L144.3,42z"/>
<path id="XMLID_13_" fill-rule="evenodd" clip-rule="evenodd" fill="#A4A3B7" d="M149.8,47.1c0-1.1,0.1-2,0.1-2.7c0-0.7,0-1.3,0-1.7
	c0-0.1,0-0.3,0-0.4c0-0.1,0-0.2,0-0.3c0,0,0-0.1,0-0.1c0,0,0.1,0,0.1,0c0,0,0,0,0,0c0,0,0,0,0,0c0,0,0,0,0,0c0,0,0,0,0,0
	c0.1,0.2,0.3,0.4,0.6,0.8c0.3,0.3,0.6,0.7,1,1c0,0,0.1,0.1,0.1,0.1c0,0,0.1,0.1,0.1,0.1c0.4,0.5,0.9,0.9,1.3,1.3
	c0.4,0.4,0.6,0.6,0.6,0.6c0-0.2,0-0.4,0-0.8c0-0.3,0-0.7,0-1c0-0.1,0-0.1,0-0.2c0-0.1,0-0.1,0-0.2c0-0.4,0-1-0.1-1.6
	c0.1,0,0.1,0,0.1,0c0,0,0.1,0,0.1,0c0.1,0,0.1,0,0.1,0c0,0,0,0,0.1,0s0,0,0,0c0,0,0,0,0,0h0c0,0.7-0.1,1.3-0.1,1.9
	c0,0.6,0,1.1,0,1.6c0,0.2,0,0.5,0,0.7c0,0.2,0,0.4,0,0.6c0,0.1,0,0.3,0,0.3c0,0.1,0,0.1,0,0.2l0,0c0,0,0,0,0,0c0,0,0,0,0,0.1
	c0,0,0,0-0.1,0l0,0c0,0,0,0-0.1,0c0,0-0.1-0.1-0.1-0.1c-0.1-0.2-0.4-0.5-0.7-0.8c-0.3-0.3-0.6-0.7-0.9-1c0,0-0.1,0-0.1-0.1
	c0,0-0.1,0-0.1-0.1c-0.4-0.5-0.9-1-1.3-1.4c-0.4-0.4-0.6-0.6-0.6-0.6c0,0.2,0,0.5,0,0.8c0,0.3,0,0.6,0,0.9c0,0.1,0,0.2,0,0.4
	c0,0.1,0,0.2,0,0.4c0,0.4,0,0.7,0,1c0,0.3,0,0.4,0,0.5c0,0,0,0,0,0c-0.1,0-0.1,0-0.2,0c-0.1,0-0.1,0-0.1,0c-0.1,0-0.1,0-0.1,0
	C149.9,47.1,149.9,47.1,149.8,47.1C149.8,47.1,149.8,47.1,149.8,47.1z"/>
<path id="XMLID_12_" fill-rule="evenodd" clip-rule="evenodd" fill="#A4A3B7" d="M161.8,47.1C161.8,47.1,161.7,47.2,161.8,47.1
	L161.8,47.1C161.7,47.2,161.7,47.2,161.8,47.1l-0.1,0c0,0,0,0,0,0c0-0.2-0.1-0.4-0.3-0.7c-0.1-0.3-0.3-0.6-0.4-1
	c0-0.1-0.1-0.1-0.1-0.1c0-0.1-0.1-0.1-0.1-0.2c-0.2-0.4-0.4-0.8-0.6-1.1c-0.2-0.3-0.3-0.5-0.3-0.5c0,0,0,0,0-0.1h0l0,0
	c0,0,0,0,0,0.1c0,0,0,0.1,0,0.4c-0.1,0.2-0.1,0.5-0.1,1c0,0.3-0.1,0.6-0.1,1c0,0.4-0.1,0.8-0.1,1.3c-0.1,0-0.1,0-0.1,0h0
	c0,0-0.1,0-0.1,0c0,0-0.1,0-0.1,0c0,0,0,0-0.1,0h0c0,0,0,0-0.1,0c0,0,0,0,0,0c0,0,0,0,0,0c0,0,0,0-0.1,0c0-0.1,0-0.2,0.1-0.3
	c0-0.1,0.1-0.2,0.1-0.4c0.2-1.1,0.4-2.1,0.4-3c0.1-0.9,0.1-1.4,0.1-1.4l0,0c0,0,0,0,0,0c0,0,0-0.1,0-0.1c0,0,0,0,0,0c0,0,0,0,0.1,0
	c0,0,0,0.1,0.1,0.1c0.6,1.3,1.1,2.2,1.5,3c0,0.1,0.1,0.1,0.1,0.2c0,0.1,0.1,0.1,0.1,0.2c0.1,0.1,0.1,0.2,0.1,0.3
	c0.1,0.1,0.1,0.2,0.1,0.2c0.6-1,1.1-1.9,1.5-2.7c0.1-0.1,0.1-0.3,0.2-0.4c0.1-0.1,0.2-0.3,0.2-0.4c0-0.1,0.1-0.1,0.1-0.2
	c0-0.1,0.1-0.1,0.1-0.2c0,0,0,0,0-0.1c0,0,0,0,0,0c0,0,0,0,0,0s0,0,0,0v0v0c0,0,0,0.1,0,0.1c0.2,1.9,0.4,3.6,0.6,5.1
	c0,0-0.1,0-0.1,0c0,0,0,0,0,0c0,0-0.1,0-0.1,0c0,0,0,0-0.1,0c0,0,0,0-0.1,0h0c0,0-0.1,0-0.1,0h0c0,0-0.1,0-0.1,0c0,0-0.1,0-0.1,0
	c0-0.3,0-0.6-0.1-0.9c0-0.3,0-0.6-0.1-0.9c-0.1-0.5-0.1-1-0.1-1.3c0-0.4-0.1-0.5-0.1-0.6c0,0,0-0.1-0.1-0.1c0,0,0,0,0,0c0,0,0,0,0,0
	l0,0c-0.5,0.9-1,1.8-1.3,2.5C162,46.7,161.8,47.1,161.8,47.1z"/>
<path id="XMLID_11_" fill-rule="evenodd" clip-rule="evenodd" fill="#A4A3B7" d="M169.5,42c0,0,0.2,0,0.4,0c0.2,0,0.5,0,0.8,0
	c0,0,0,0,0.1,0c0,0,0.1,0,0.1,0c0.3,0,0.6,0,0.8,0c0.3,0,0.4,0,0.5,0v0.5c-0.1,0-0.2-0.1-0.4-0.1c-0.2,0-0.4,0-0.5,0
	c-0.1,0-0.2,0-0.3,0c-0.1,0-0.2,0-0.3,0c-0.1,0-0.1,0-0.2,0c-0.1,0-0.1,0-0.1,0c0,0-0.1,0-0.1,0c0,0,0,0.1,0,0.2c0,0.1,0,0.3,0,0.6
	c0,0.2,0,0.6,0,1c0,0,0,0,0.1,0c0.1,0,0.1,0,0.3,0c0.1,0,0.2,0,0.3,0c0.1,0,0.2,0,0.3,0c0.2,0,0.4,0,0.5,0c0.1,0,0.3,0,0.3,0
	c0,0.1,0,0.2,0,0.2c0,0.1,0,0.1,0,0.2c-0.1,0-0.2,0-0.4,0c-0.1,0-0.3,0-0.5,0c0,0-0.1,0-0.1,0s-0.1,0-0.1,0c-0.2,0-0.4,0-0.5,0
	c-0.1,0-0.2,0-0.2,0c0,0.5,0,0.9,0,1.2c0,0.3,0,0.5,0,0.6c0,0.1,0,0.2,0,0.2v0c0,0,0.1,0,0.1,0c0.1,0,0.1,0,0.1,0c0.1,0,0.1,0,0.2,0
	c0.1,0,0.2,0,0.3,0c0.1,0,0.2,0,0.3,0c0.2,0,0.4,0,0.5,0c0.1,0,0.3,0,0.4-0.1v0.5c-0.1,0-0.2,0-0.4,0c-0.2,0-0.5,0-0.8,0
	c0,0,0,0,0,0h0c-0.3,0-0.6,0-0.9,0c-0.3,0-0.4,0-0.5,0c0-0.1,0-0.1,0-0.3c0-0.1,0-0.4,0-0.8c0-0.3,0-0.8,0-1.5c0-0.6,0-1.1,0-1.5
	c0-0.3,0-0.6,0-0.7C169.5,42.2,169.5,42.1,169.5,42L169.5,42z"/>
<path id="XMLID_10_" fill-rule="evenodd" clip-rule="evenodd" fill="#A4A3B7" d="M177,47.1c0-1.1,0.1-2,0.1-2.7c0-0.7,0-1.3,0-1.7
	c0-0.1,0-0.3,0-0.4c0-0.1,0-0.2,0-0.3c0,0,0-0.1,0-0.1c0,0,0,0,0.1,0c0,0,0,0,0,0c0,0,0,0,0,0c0,0,0,0,0.1,0c0,0,0,0,0,0
	c0.1,0.2,0.3,0.4,0.6,0.8c0.3,0.3,0.6,0.7,1,1c0,0,0,0.1,0.1,0.1c0,0,0.1,0.1,0.1,0.1c0.4,0.5,0.9,0.9,1.3,1.3
	c0.4,0.4,0.6,0.6,0.6,0.6c0-0.2,0-0.4,0-0.8c0-0.3,0-0.7,0-1c0-0.1,0-0.1,0-0.2c0-0.1,0-0.1,0-0.2c0-0.4,0-1-0.1-1.6
	c0.1,0,0.1,0,0.1,0c0.1,0,0.1,0,0.1,0c0,0,0.1,0,0.1,0c0,0,0.1,0,0.1,0l0,0c0,0,0,0,0,0l0,0c0,0.7,0,1.3,0,1.9c0,0.6,0,1.1,0,1.6
	c0,0.2,0,0.5,0,0.7c0,0.2,0,0.4,0,0.6c0,0.1,0,0.3,0,0.3c0,0.1,0,0.1,0,0.2l0,0c0,0,0,0,0,0c0,0,0,0,0,0.1c0,0,0,0,0,0l0,0
	c0,0-0.1,0-0.1,0c0,0-0.1-0.1-0.1-0.1c-0.1-0.2-0.4-0.5-0.7-0.8c-0.3-0.3-0.6-0.7-0.9-1c0,0,0,0-0.1-0.1c0,0,0,0-0.1-0.1
	c-0.5-0.5-0.9-1-1.3-1.4c-0.4-0.4-0.6-0.6-0.6-0.6c0,0.2,0,0.5,0,0.8c0,0.3,0,0.6,0,0.9c0,0.1,0,0.2,0,0.4c0,0.1,0,0.2,0,0.4
	c0,0.4,0,0.7,0,1c0,0.3,0,0.4,0,0.5c0,0,0,0,0,0c-0.1,0-0.1,0-0.1,0c-0.1,0-0.1,0-0.1,0c0,0-0.1,0-0.1,0
	C177.1,47.1,177,47.1,177,47.1C177,47.1,177,47.1,177,47.1z"/>
<path id="XMLID_9_" fill-rule="evenodd" clip-rule="evenodd" fill="#A4A3B7" d="M186,42c0,0,0.2,0,0.6,0.1c0.4,0,0.7,0,1.2,0
	c0,0,0,0,0.1,0c0,0,0,0,0.1,0c0.4,0,0.9,0,1.3,0c0.4,0,0.6,0,0.6-0.1v0.4c-0.1,0-0.2,0-0.3,0c-0.1,0-0.3,0-0.4,0c-0.1,0-0.2,0-0.3,0
	c-0.1,0-0.2,0-0.2,0c-0.1,0-0.2,0-0.3,0c-0.1,0-0.1,0-0.1,0c0,0.1,0,0.2,0,0.3c0,0.1,0,0.4,0,0.7c0,0.3,0,0.7,0,1.2
	c0,0.6,0,1.1,0,1.5c0,0.4,0,0.6,0,0.8c0,0.1,0,0.3,0,0.3c0,0-0.1,0-0.2,0c-0.1,0-0.1,0-0.1,0c-0.1,0-0.1,0-0.2,0c-0.1,0-0.1,0-0.1,0
	c0-0.1,0-0.2,0-0.4c0-0.1,0-0.4,0-0.7c0-0.4,0-0.8,0-1.5c0-0.5,0-1,0-1.3s0-0.5,0-0.7c0-0.1,0-0.2,0-0.3c0,0,0,0-0.1,0
	c-0.1,0-0.1,0-0.2,0c0,0-0.1,0-0.1,0c0,0-0.1,0-0.1,0c-0.1,0-0.1,0-0.2,0c-0.1,0-0.1,0-0.2,0c-0.2,0-0.3,0-0.4,0.1
	c-0.2,0-0.2,0.1-0.3,0.1V42z"/>
<text id="XMLID_7_" transform="matrix(0.8854 0 0 1 66.1277 36.1707)"><tspan x="0" y="0" fill="#A4A3B7" font-family="'MicrogrammaD-BoldExte'" font-size="12.2546px">UNKNOWN</tspan><tspan x="89.8" y="0" fill="#6C8BC6" font-family="'MicrogrammaD-BoldExte'" font-size="12.2546px">WORLDS</tspan></text>
</svg>
